<svg width="256" height="256" viewBox="0 0 256 256" xmlns="http://www.w3.org/2000/svg">
  <rect width="256" height="256" rx="32" fill="#25D366"/>
  <path d="M128 32C67.2 32 16 83.2 16 144c0 22.4 6.4 43.2 17.6 60.8L16 240l36.8-16.8C69.6 233.6 98.4 240 128 240c60.8 0 112-51.2 112-112S188.8 32 128 32zm52.8 124.8c-2.4 1.6-4.8 2.4-8 4.8-3.2 2.4-8 4.8-11.2 5.6-3.2 0.8-6.4 1.6-12.8-0.8-6.4-2.4-27.2-10.4-51.2-32-19.2-17.6-32-39.2-35.2-40.8-3.2-1.6-8-2.4-11.2 0-3.2 2.4-12.8 14.4-15.2 17.6-2.4 3.2-4.8 4-8 2.4-3.2-1.6-13.6-5.6-26.4-17.6-9.6-9.6-16-21.6-17.6-25.6-1.6-4 0-6.4 1.6-8 1.6-1.6 3.2-4 4.8-6.4 1.6-2.4 2.4-4 4-6.4 1.6-2.4 0.8-4.8-0.8-6.4-1.6-1.6-14.4-35.2-20-48-5.6-12.8-11.2-11.2-15.2-11.2-4 0-8 0-12 0-4 0-10.4 1.6-16 8-5.6 6.4-21.6 21.6-21.6 52.8s22.4 61.6 25.6 65.6c3.2 4 44.8 70.4 108.8 96 16 6.4 28.8 10.4 38.4 13.6 16 5.6 30.4 4.8 41.6 2.4 12.8-1.6 39.2-16 44.8-32 5.6-16 5.6-29.6 4-32-1.6-2.4-5.6-4-11.2-6.4z" fill="white"/>
</svg>