<svg width="16" height="16" viewBox="0 0 16 16" xmlns="http://www.w3.org/2000/svg">
  <circle cx="8" cy="8" r="8" fill="#FF3B30"/>
  <path d="M8 2C5.2 2 3 4.2 3 7c0 1.4 0.4 2.7 1.1 3.8L3 13l2.3-1.1C6.2 12.6 7.1 13 8 13c2.8 0 5-2.2 5-5S10.8 2 8 2zm3.3 7.8c-0.2 0.1-0.3 0.2-0.5 0.3-0.2 0.2-0.5 0.3-0.7 0.4-0.2 0.1-0.4 0.1-0.8-0.1-0.4-0.2-1.7-0.7-3.2-2-1.2-1.1-2-2.5-2.2-2.6-0.2-0.1-0.5-0.2-0.7 0-0.2 0.2-0.8 0.9-1 1.1-0.2 0.2-0.3 0.3-0.5 0.2-0.2-0.1-0.9-0.4-1.7-1.1-0.6-0.6-1-1.4-1.1-1.6-0.1-0.3 0-0.4 0.1-0.5 0.1-0.1 0.2-0.3 0.3-0.4 0.1-0.2 0.2-0.3 0.3-0.4 0.1-0.2 0.1-0.3-0.1-0.4-0.1-0.1-0.9-2.2-1.3-3-0.4-0.8-0.7-0.7-1-0.7-0.3 0-0.5 0-0.8 0-0.3 0-0.7 0.1-1 0.5-0.4 0.4-1.4 1.4-1.4 3.3s1.4 3.9 1.6 4.1c0.2 0.3 2.8 4.4 6.8 6 1 0.4 1.8 0.7 2.4 0.9 1 0.4 1.9 0.3 2.6 0.2 0.8-0.1 2.5-1 2.8-2 0.4-1 0.4-1.9 0.3-2-0.1-0.2-0.4-0.3-0.7-0.4z" fill="white"/>
  <circle cx="12" cy="4" r="3" fill="#FF6B35"/>
  <text x="12" y="6" text-anchor="middle" font-family="Arial, sans-serif" font-size="3" fill="white" font-weight="bold">!</text>
</svg>